<svg width="38" height="38" viewBox="0 0 38 38" fill="none" xmlns="http://www.w3.org/2000/svg">
<path d="M34.5455 0H3.45455C1.54591 0 0 1.54591 0 3.45455V34.5455C0 36.4541 1.54591 38 3.45455 38H34.5455C36.4541 38 38 36.4541 38 34.5455V3.45455C38 1.54591 36.4541 0 34.5455 0ZM12.0115 31.0909H6.916V14.6956H12.0115V31.0909ZM9.41191 12.3517C7.76927 12.3517 6.441 11.02 6.441 9.38082C6.441 7.74164 7.771 6.41164 9.41191 6.41164C11.0494 6.41164 12.3811 7.74336 12.3811 9.38082C12.3811 11.02 11.0494 12.3517 9.41191 12.3517ZM31.0978 31.0909H26.0058V23.1178C26.0058 21.2161 25.9713 18.7703 23.3579 18.7703C20.7065 18.7703 20.2989 20.8413 20.2989 22.9796V31.0909H15.2069V14.6956H20.0951V16.9359H20.1642C20.8447 15.6474 22.5064 14.288 24.985 14.288C30.1444 14.288 31.0978 17.6838 31.0978 22.0987V31.0909Z" fill="white"/>
</svg>
