<svg xmlns="http://www.w3.org/2000/svg" version="1.1" xmlns:xlink="http://www.w3.org/1999/xlink" xmlns:svgjs="http://svgjs.dev/svgjs" viewBox="0 0 1422 800"><circle r="13" cx="365" cy="22" fill="hsl(54, 15%, 90%)" opacity="0.31"></circle><circle r="12" cx="212" cy="580" fill="hsl(54, 15%, 90%)" opacity="0.10"></circle><circle r="16" cx="829" cy="159" fill="hsl(51, 15%, 90%)" opacity="0.37"></circle><circle r="9.5" cx="1148" cy="139" fill="hsl(39, 15%, 90%)" opacity="0.68"></circle><circle r="11.5" cx="22" cy="653" fill="hsl(35, 15%, 90%)" opacity="0.82"></circle><circle r="10" cx="1141" cy="299" fill="hsl(34, 15%, 90%)" opacity="0.94"></circle><circle r="8" cx="1286" cy="379" fill="hsl(46, 15%, 90%)" opacity="0.23"></circle><circle r="15" cx="182" cy="368" fill="hsl(52, 15%, 90%)" opacity="0.31"></circle><circle r="14.5" cx="1357" cy="332" fill="hsl(56, 15%, 90%)" opacity="0.72"></circle><circle r="11.5" cx="660" cy="18" fill="hsl(54, 15%, 90%)" opacity="0.83"></circle><circle r="12" cx="822" cy="376" fill="hsl(49, 15%, 90%)" opacity="0.78"></circle><circle r="15" cx="974" cy="24" fill="hsl(51, 15%, 90%)" opacity="0.82"></circle><circle r="11.5" cx="65" cy="649" fill="hsl(40, 15%, 90%)" opacity="0.48"></circle><circle r="10.5" cx="1097" cy="316" fill="hsl(33, 15%, 90%)" opacity="0.26"></circle><circle r="14.5" cx="743" cy="171" fill="hsl(54, 15%, 90%)" opacity="0.16"></circle><circle r="16.5" cx="536" cy="162" fill="hsl(55, 15%, 90%)" opacity="0.90"></circle><circle r="16" cx="1398" cy="775" fill="hsl(59, 15%, 90%)" opacity="0.17"></circle><circle r="15.5" cx="557" cy="359" fill="hsl(56, 15%, 90%)" opacity="0.66"></circle><circle r="10" cx="932" cy="476" fill="hsl(43, 15%, 90%)" opacity="0.15"></circle><circle r="13.5" cx="513" cy="62" fill="hsl(51, 15%, 90%)" opacity="0.78"></circle><circle r="12" cx="886" cy="158" fill="hsl(48, 15%, 90%)" opacity="0.11"></circle><circle r="14" cx="789" cy="261" fill="hsl(51, 15%, 90%)" opacity="0.49"></circle><circle r="12.5" cx="857" cy="64" fill="hsl(56, 15%, 90%)" opacity="0.22"></circle><circle r="14.5" cx="526" cy="319" fill="hsl(56, 15%, 90%)" opacity="0.53"></circle><circle r="13" cx="968" cy="79" fill="hsl(49, 15%, 90%)" opacity="0.40"></circle><circle r="10.5" cx="407" cy="17" fill="hsl(52, 15%, 90%)" opacity="0.22"></circle><circle r="14" cx="462" cy="436" fill="hsl(57, 15%, 90%)" opacity="0.73"></circle><circle r="13" cx="440" cy="38" fill="hsl(52, 15%, 90%)" opacity="0.53"></circle><circle r="12" cx="126" cy="567" fill="hsl(47, 15%, 90%)" opacity="0.80"></circle><circle r="12.5" cx="1290" cy="85" fill="hsl(51, 15%, 90%)" opacity="0.91"></circle><circle r="13" cx="1219" cy="468" fill="hsl(38, 15%, 90%)" opacity="0.18"></circle><circle r="13" cx="446" cy="534" fill="hsl(57, 15%, 90%)" opacity="0.74"></circle><circle r="15.5" cx="232" cy="676" fill="hsl(55, 15%, 90%)" opacity="0.18"></circle><circle r="17.5" cx="447" cy="724" fill="hsl(57, 15%, 90%)" opacity="0.57"></circle><circle r="16" cx="368" cy="422" fill="hsl(58, 15%, 90%)" opacity="0.61"></circle><circle r="8" cx="46" cy="339" fill="hsl(40, 15%, 90%)" opacity="0.72"></circle><circle r="9" cx="17" cy="320" fill="hsl(35, 15%, 90%)" opacity="0.54"></circle><circle r="14" cx="703" cy="316" fill="hsl(55, 15%, 90%)" opacity="0.59"></circle><circle r="14" cx="814" cy="62" fill="hsl(57, 15%, 90%)" opacity="0.38"></circle><circle r="14" cx="150" cy="147" fill="hsl(50, 15%, 90%)" opacity="0.93"></circle><circle r="17" cx="274" cy="488" fill="hsl(57, 15%, 90%)" opacity="0.46"></circle><circle r="14.5" cx="228" cy="217" fill="hsl(55, 15%, 90%)" opacity="0.66"></circle><circle r="11.5" cx="944" cy="615" fill="hsl(41, 15%, 90%)" opacity="0.57"></circle><circle r="9.5" cx="1224" cy="304" fill="hsl(41, 15%, 90%)" opacity="0.50"></circle><circle r="16.5" cx="641" cy="423" fill="hsl(56, 15%, 90%)" opacity="0.85"></circle><circle r="16" cx="1350" cy="771" fill="hsl(54, 15%, 90%)" opacity="0.90"></circle><circle r="14" cx="158" cy="726" fill="hsl(51, 15%, 90%)" opacity="0.84"></circle><circle r="12" cx="719" cy="464" fill="hsl(54, 15%, 90%)" opacity="0.79"></circle><circle r="19.5" cx="682" cy="687" fill="hsl(55, 15%, 90%)" opacity="0.73"></circle><circle r="14.5" cx="261" cy="589" fill="hsl(56, 15%, 90%)" opacity="0.62"></circle><circle r="13.5" cx="624" cy="585" fill="hsl(56, 15%, 90%)" opacity="0.26"></circle><circle r="14.5" cx="1401" cy="502" fill="hsl(61, 15%, 90%)" opacity="0.10"></circle><circle r="10" cx="1107" cy="275" fill="hsl(33, 15%, 90%)" opacity="0.75"></circle><circle r="11" cx="1001" cy="407" fill="hsl(36, 15%, 90%)" opacity="0.83"></circle><circle r="17" cx="467" cy="774" fill="hsl(57, 15%, 90%)" opacity="0.47"></circle><circle r="14.5" cx="423" cy="676" fill="hsl(57, 15%, 90%)" opacity="0.86"></circle><circle r="18" cx="729" cy="642" fill="hsl(54, 15%, 90%)" opacity="0.11"></circle><circle r="16" cx="417" cy="448" fill="hsl(57, 15%, 90%)" opacity="0.80"></circle><circle r="11.5" cx="780" cy="547" fill="hsl(51, 15%, 90%)" opacity="0.78"></circle><circle r="10" cx="1183" cy="306" fill="hsl(37, 15%, 90%)" opacity="0.45"></circle><circle r="8" cx="1259" cy="373" fill="hsl(43, 15%, 90%)" opacity="0.73"></circle><circle r="11" cx="330" cy="778" fill="hsl(58, 15%, 90%)" opacity="0.18"></circle><circle r="15.5" cx="490" cy="273" fill="hsl(56, 15%, 90%)" opacity="0.76"></circle><circle r="14" cx="537" cy="26" fill="hsl(51, 15%, 90%)" opacity="0.71"></circle><circle r="18" cx="313" cy="610" fill="hsl(58, 15%, 90%)" opacity="0.33"></circle><circle r="12.5" cx="1041" cy="21" fill="hsl(47, 15%, 90%)" opacity="0.30"></circle><circle r="11.5" cx="1189" cy="663" fill="hsl(37, 15%, 90%)" opacity="0.85"></circle><circle r="11.5" cx="1084" cy="358" fill="hsl(34, 15%, 90%)" opacity="0.32"></circle><circle r="14.5" cx="260" cy="166" fill="hsl(56, 15%, 90%)" opacity="0.30"></circle><circle r="11" cx="655" cy="563" fill="hsl(55, 15%, 90%)" opacity="0.37"></circle><circle r="9" cx="911" cy="646" fill="hsl(44, 15%, 90%)" opacity="0.23"></circle><circle r="13.5" cx="266" cy="308" fill="hsl(56, 15%, 90%)" opacity="0.25"></circle><circle r="12.5" cx="1097" cy="133" fill="hsl(40, 15%, 90%)" opacity="0.75"></circle><circle r="15.5" cx="31" cy="534" fill="hsl(37, 15%, 90%)" opacity="0.48"></circle><circle r="14.5" cx="660" cy="472" fill="hsl(55, 15%, 90%)" opacity="0.80"></circle><circle r="11" cx="1014" cy="123" fill="hsl(43, 15%, 90%)" opacity="0.49"></circle><circle r="13" cx="124" cy="181" fill="hsl(47, 15%, 90%)" opacity="0.83"></circle><circle r="11" cx="822" cy="420" fill="hsl(50, 15%, 90%)" opacity="0.22"></circle><circle r="11" cx="449" cy="605" fill="hsl(57, 15%, 90%)" opacity="0.17"></circle><circle r="9.5" cx="145" cy="18" fill="hsl(52, 15%, 90%)" opacity="0.22"></circle><circle r="10.5" cx="60" cy="470" fill="hsl(40, 15%, 90%)" opacity="0.15"></circle><circle r="8.5" cx="45" cy="390" fill="hsl(40, 15%, 90%)" opacity="0.46"></circle><circle r="11" cx="98" cy="83" fill="hsl(47, 15%, 90%)" opacity="0.81"></circle><circle r="11" cx="1205" cy="703" fill="hsl(38, 15%, 90%)" opacity="0.74"></circle><circle r="16" cx="494" cy="222" fill="hsl(56, 15%, 90%)" opacity="0.22"></circle><circle r="12.5" cx="975" cy="319" fill="hsl(39, 15%, 90%)" opacity="0.90"></circle><circle r="17" cx="1396" cy="29" fill="hsl(56, 15%, 90%)" opacity="0.33"></circle><circle r="13.5" cx="199" cy="414" fill="hsl(52, 15%, 90%)" opacity="0.55"></circle><circle r="14" cx="745" cy="703" fill="hsl(53, 15%, 90%)" opacity="0.47"></circle><circle r="9.5" cx="1055" cy="282" fill="hsl(34, 15%, 90%)" opacity="0.26"></circle><circle r="9" cx="1217" cy="32" fill="hsl(46, 15%, 90%)" opacity="0.94"></circle><circle r="8" cx="1049" cy="576" fill="hsl(34, 15%, 90%)" opacity="0.52"></circle><circle r="11" cx="850" cy="640" fill="hsl(48, 15%, 90%)" opacity="0.94"></circle><circle r="13" cx="723" cy="84" fill="hsl(57, 15%, 90%)" opacity="0.59"></circle><circle r="12" cx="542" cy="582" fill="hsl(56, 15%, 90%)" opacity="0.56"></circle><circle r="9.5" cx="1280" cy="336" fill="hsl(46, 15%, 90%)" opacity="0.36"></circle><circle r="11.5" cx="293" cy="783" fill="hsl(57, 15%, 90%)" opacity="0.57"></circle><circle r="13" cx="1287" cy="565" fill="hsl(46, 15%, 90%)" opacity="0.22"></circle><circle r="15.5" cx="620" cy="530" fill="hsl(56, 15%, 90%)" opacity="0.28"></circle><circle r="13.5" cx="581" cy="588" fill="hsl(56, 15%, 90%)" opacity="0.40"></circle><circle r="9.5" cx="984" cy="272" fill="hsl(38, 15%, 90%)" opacity="0.27"></circle><circle r="7.5" cx="15" cy="172" fill="hsl(35, 15%, 90%)" opacity="0.85"></circle><circle r="11.5" cx="951" cy="700" fill="hsl(41, 15%, 90%)" opacity="0.52"></circle><circle r="8.5" cx="14" cy="50" fill="hsl(35, 15%, 90%)" opacity="0.62"></circle><circle r="9" cx="1323" cy="344" fill="hsl(51, 15%, 90%)" opacity="0.15"></circle><circle r="14.5" cx="704" cy="255" fill="hsl(55, 15%, 90%)" opacity="0.59"></circle></svg>